Coordinates
version=1
nRows=6
nColumns=63
inDegrees=yes

Units are S.I. units (second, meters, Newtons, ...)
If the header above contains a line with 'inDegrees', this indicates whether rotational values are in degrees (yes) or radians (no).

endheader
time	pelvis_tilt	pelvis_list	pelvis_rotation	pelvis_tx	pelvis_ty	pelvis_tz	hip_flexion_r	hip_adduction_r	hip_rotation_r	knee_angle_r	knee_angle_r_beta	ankle_angle_r	subtalar_angle_r	mtp_angle_r	hip_flexion_l	hip_adduction_l	hip_rotation_l	knee_angle_l	knee_angle_l_beta	ankle_angle_l	subtalar_angle_l	mtp_angle_l	L5_S1_Flex_Ext	L5_S1_Lat_Bending	L5_S1_axial_rotation	L4_L5_Flex_Ext	L4_L5_Lat_Bending	L4_L5_axial_rotation	L3_L4_Flex_Ext	L3_L4_Lat_Bending	L3_L4_axial_rotation	L2_L3_Flex_Ext	L2_L3_Lat_Bending	L2_L3_axial_rotation	L1_L2_Flex_Ext	L1_L2_Lat_Bending	L1_L2_axial_rotation	L1_T12_Flex_Ext	L1_T12_Lat_Bending	L1_T12_axial_rotation	Abs_r3	Abs_r2	Abs_r1	Abs_t1	Abs_t2	neck_flexion	neck_bending	neck_rotation	arm_flex_r	arm_add_r	arm_rot_r	elbow_flex_r	pro_sup_r	wrist_flex_r	wrist_dev_r	arm_flex_l	arm_add_l	arm_rot_l	elbow_flex_l	pro_sup_l	wrist_flex_l	wrist_dev_l
      3.88135593	      4.83750068	     -0.17725182	     98.32952373	      0.30049298	      1.09894220	      0.37235654	     -5.64416855	      0.54878173	    -21.29106633	     10.27535523	      0.17933878	     39.86129026	     18.27391938	      0.00000000	     -2.16886368	      0.12677616	     -4.80556519	     14.55145030	      0.25397072	     38.16234697	     10.67374853	      0.00000000	     -0.05015839	     -0.20717561	     -1.57868561	     -0.09314914	     -0.27554355	     -1.67735346	     -0.08240521	     -0.50372677	     -1.67735346	     -0.05732602	     -0.50372677	     -1.38134991	     -0.04657708	     -0.42247249	     -1.28268206	     -0.02866050	     -0.32091501	     -1.18401421	     -0.35827634	     -2.34361188	     -8.78017576	      0.00000000	      0.00000000	     -8.29091143	      4.84999458	     -7.15331903	     62.02034099	    -46.28756598	     45.43285033	     75.76707634	     88.61660210	     -2.46211208	     25.49892409	     47.49695765	    -40.28263083	     43.46470128	    112.37029779	     88.66002545	     14.74359416	     33.91137008
      3.89830508	      4.82583495	     -0.16303349	     98.65988557	      0.29936663	      1.09930003	      0.37267669	     -5.62620134	      0.51970505	    -21.59041772	     10.32010676	      0.18011984	     39.82202128	     18.27539747	      0.00000000	     -2.06311053	      0.08059180	     -5.41587613	     14.62909048	      0.25532580	     38.44160390	     11.50194558	      0.00000000	     -0.06247118	     -0.17701197	     -1.52495375	     -0.11601523	     -0.23542593	     -1.62026336	     -0.10263390	     -0.43038691	     -1.62026336	     -0.07139831	     -0.43038691	     -1.33433453	     -0.05801074	     -0.36096282	     -1.23902492	     -0.03569603	     -0.27419155	     -1.14371531	     -0.44622538	     -2.00239485	     -8.48133528	      0.00000000	      0.00000000	     -8.03559892	      3.38760689	     -6.22532882	     61.55754898	    -49.51583477	     49.46432982	     78.38506515	     88.21087371	      0.36886283	     28.94386660	     43.33940877	    -38.94545072	     39.24267678	    112.13005688	     89.04830321	     12.80710024	     33.57001516
      3.91525424	      4.79955237	     -0.28570174	     98.92771717	      0.29857974	      1.09947791	      0.37243599	     -5.50901380	      0.47349145	    -21.83047796	     10.32248257	      0.18016131	     39.83987207	     18.32674427	      0.00000000	     -1.85723444	      0.06799751	     -5.81821615	     14.66507609	      0.25595386	     38.78597471	     12.24736843	      0.00000000	     -0.04735253	     -0.13956128	     -1.43959694	     -0.08793839	     -0.18561650	     -1.52957175	     -0.07779548	     -0.33932929	     -1.52957175	     -0.05411921	     -0.33932929	     -1.25964732	     -0.04397156	     -0.28459336	     -1.16967252	     -0.02705724	     -0.21618042	     -1.07969771	     -0.33823441	     -1.57874508	     -8.00660631	      0.00000000	      0.00000000	     -7.61128189	      1.72566289	     -4.94258488	     60.51261117	    -52.49106813	     52.51461107	     82.12762022	     86.66361957	      4.09186536	     30.36749944	     38.80017004	    -37.28657920	     34.77228637	    112.07319687	     89.24589144	     10.88037888	     32.65031232
      3.93220339	      4.78541362	     -0.46057427	     98.98588891	      0.29814654	      1.09947130	      0.37185882	     -5.31159214	      0.40754397	    -21.86752764	     10.38604680	      0.18127071	     39.90669333	     18.36873698	      0.00000000	     -1.64879228	      0.10553643	     -5.96665811	     14.64982873	      0.25568775	     39.10711048	     12.52001184	      0.00000000	     -0.02655256	     -0.09666633	     -1.23793308	     -0.04931077	     -0.12856622	     -1.31530390	     -0.04362321	     -0.23503452	     -1.31530390	     -0.03034692	     -0.23503452	     -1.08319145	     -0.02465671	     -0.19712199	     -1.00582063	     -0.01517213	     -0.14973615	     -0.92844981	     -0.18966231	     -1.09350890	     -6.88501244	      0.00000000	      0.00000000	     -7.21068209	      0.01727370	     -4.02061578	     59.31011379	    -55.81464607	     54.94548897	     86.77039033	     81.52597227	      9.84041562	     30.63490258	     35.07595532	    -35.33190344	     31.35519427	    111.71052668	     89.35402218	      8.74193192	     30.14139151
      3.94915254	      4.68625857	     -0.54225962	     99.05329491	      0.29789840	      1.09939194	      0.37137464	     -5.17929711	      0.26023728	    -21.94635347	     10.56822212	      0.18445027	     40.09117498	     18.35490905	      0.00000000	     -1.62155858	      0.19839424	     -6.18318116	     14.49081622	      0.25291245	     39.35747362	     13.04652324	      0.00000000	     -0.02951730	     -0.05489678	     -1.10975075	     -0.05481658	     -0.07301271	     -1.17911017	     -0.04849398	     -0.13347602	     -1.17911017	     -0.03373533	     -0.13347602	     -0.97103190	     -0.02740977	     -0.11194551	     -0.90167248	     -0.01686619	     -0.08503511	     -0.83231306	     -0.21083914	     -0.62100332	     -6.17210072	      0.00000000	      0.00000000	     -6.86137967	     -1.45569883	     -2.10769965	     60.52131731	    -58.14748752	     59.59693189	     90.61384267	     71.50797211	     18.69971068	     30.25280482	     31.78215816	    -34.04959536	     28.49020426	    111.50833025	     89.40185313	      6.12362308	     26.40621183
      3.96610169	      4.68793998	     -0.68667807	     98.93078902	      0.29809599	      1.09888638	      0.37060119	     -5.02703880	      0.22238392	    -21.84101659	     10.60795463	      0.18514374	     40.28527331	     18.41100023	      0.00000000	     -1.44332083	      0.20951133	     -6.09251396	     14.59813178	      0.25478546	     39.88428290	     13.16861522	      0.00000000	     -0.02111644	     -0.00766907	     -0.94750345	     -0.03921534	     -0.01019986	     -1.00672242	     -0.03469219	     -0.01864657	     -1.00672242	     -0.02413398	     -0.01864657	     -0.82906552	     -0.01960872	     -0.01563876	     -0.76984655	     -0.01206593	     -0.01187938	     -0.71062759	     -0.15083260	     -0.08675402	     -5.26972994	      0.00000000	      0.00000000	     -6.83187420	     -2.68979020	     -0.36421841	     62.26536290	    -60.00652934	     64.56132879	     94.92908026	     63.13809953	     26.62245383	     30.36895753	     29.54226297	    -32.90804713	     26.56611579	    111.14080829	     89.40577181	      4.42505236	     22.94979004
